<?xml version="1.0" standalone="no"?>
<!DOCTYPE svg PUBLIC "-//W3C//DTD SVG 1.0//EN" "http://www.w3.org/TR/2001/REC-SVG-20010904/DTD/svg10.dtd">
<svg xmlns="http://www.w3.org/2000/svg" xmlns:xlink="http://www.w3.org/1999/xlink" id="body_1" width="131" height="27">

<g transform="matrix(0.34177217 0 0 0.34177217 0.10126543 -0)">
	<g transform="matrix(0.1 0 -0 -0.1 0 79)">
        <path d="M856 699L830 679L830 399C 830 60 821 80 963 80C 1041 80 1060 83 1073 98C 1088 114 1090 150 1090 403C 1090 741 1099 720 964 720C 897 720 878 716 856 699zM1010 395L1010 170L960 170L911 170L908 395L905 620L958 620L1010 620L1010 395z" stroke="none" fill="#000000" fill-rule="nonzero" />
        <path d="M1168 418C 1170 157 1173 113 1187 98C 1200 83 1220 80 1297 80C 1439 80 1430 57 1430 420L1430 420L1430 720L1390 720L1350 720L1348 448L1345 175L1298 172L1250 169L1248 442L1245 715L1205 718L1165 721L1168 418z" stroke="none" fill="#000000" fill-rule="nonzero" />
        <path d="M1482 673L1485 625L1533 622L1580 619L1580 349L1580 80L1620 80L1660 80L1660 338C 1660 525 1657 599 1648 608C 1639 617 1649 620 1693 620L1693 620L1750 620L1750 670L1750 720L1614 720L1479 720L1482 673z" stroke="none" fill="#000000" fill-rule="nonzero" />
        <path d="M1814 705C 1817 696 1820 551 1820 384L1820 384L1820 80L1930 80C 2091 80 2080 56 2080 398C 2080 622 2077 680 2066 696C 2053 713 2037 715 1929 718C 1819 721 1808 720 1814 705zM2000 395L2000 170L1950 170L1900 170L1900 383C 1900 535 1897 599 1888 608C 1879 617 1890 620 1938 620L1938 620L2000 620L2000 395z" stroke="none" fill="#000000" fill-rule="nonzero" />
        <path d="M2150 414C 2156 54 2146 80 2281 80C 2352 80 2372 84 2391 99L2391 99L2415 118L2415 417L2415 715L2375 715L2335 715L2332 442L2330 169L2282 172L2235 175L2232 448L2230 720L2187 720L2145 720L2150 414z" stroke="none" fill="#000000" fill-rule="nonzero" />
        <path d="M2682 704C 2660 689 2660 687 2660 400C 2660 57 2650 80 2792 80L2792 80L2880 80L2880 130L2880 180L2810 180L2740 180L2740 394C 2740 556 2737 610 2728 613C 2721 616 2752 619 2798 619L2798 619L2880 620L2880 670L2880 720L2792 720C 2729 720 2698 716 2682 704z" stroke="none" fill="#000000" fill-rule="nonzero" />
        <path d="M2935 698C 2940 676 3010 109 3010 90C 3010 84 3038 80 3073 80L3073 80L3135 80L3169 362C 3188 518 3205 662 3208 683L3208 683L3213 720L3171 720C 3149 720 3130 717 3130 714C 3130 711 3118 613 3104 497C 3081 305 3071 250 3069 291C 3069 299 3056 397 3042 510L3042 510L3015 715L2972 718C 2932 721 2930 720 2935 698z" stroke="none" fill="#000000" fill-rule="nonzero" />
        <path d="M3292 683C 3290 646 3236 193 3224 118L3224 118L3218 80L3258 80C 3295 80 3299 83 3305 110C 3309 126 3309 149 3305 160C 3299 180 3302 181 3362 178C 3421 175 3425 173 3428 150C 3435 84 3438 80 3481 80L3481 80L3522 80L3516 118C 3513 138 3496 268 3480 405C 3464 543 3448 670 3445 688L3445 688L3439 720L3366 720L3293 720L3292 683zM3393 448C 3416 257 3418 270 3370 270C 3339 270 3330 274 3330 288C 3330 328 3364 590 3370 590C 3373 590 3384 526 3393 448z" stroke="none" fill="#000000" fill-rule="nonzero" />
        <path d="M3512 673L3515 625L3563 622L3610 619L3610 349L3610 80L3650 80L3690 80L3690 338C 3690 525 3687 599 3678 608C 3669 617 3679 620 3723 620L3723 620L3780 620L3780 670L3780 720L3644 720L3509 720L3512 673z" stroke="none" fill="#000000" fill-rule="nonzero" />
        <path d="M297 659C 166 627 87 528 87 395C 87 238 199 126 355 126C 465 126 547 176 598 275C 649 375 625 515 543 591C 480 650 377 679 297 659zM443 630C 545 592 604 505 604 395C 604 317 589 277 536 222C 484 166 435 146 355 146C 272 146 223 167 167 229C 136 264 92 366 104 377C 106 379 117 365 129 346C 154 306 221 270 271 270C 324 270 391 309 418 355C 448 407 445 505 413 547C 388 582 338 612 291 620L291 620L255 627L290 637C 344 654 384 652 443 630zM348 580C 384 558 420 506 420 475C 420 456 419 456 405 477C 353 551 220 507 220 415C 220 371 254 321 290 314C 329 306 318 290 273 290C 224 290 156 331 136 374C 113 424 115 490 143 530C 188 597 283 620 348 580zM388 464C 426 421 414 363 360 335C 323 316 286 324 260 357C 231 395 234 436 270 472C 296 497 306 501 333 496C 351 493 375 479 388 464z" stroke="none" fill="#000000" fill-rule="nonzero" />
	</g>
</g>
</svg>